<svg width="46" height="46" viewBox="0 0 46 46" fill="none" xmlns="http://www.w3.org/2000/svg">
<g clip-path="url(#clip0_240_15)">
<path d="M21.0833 17.5701C21.0833 17.5701 11.5 10.7908 11.5 5.27083C11.4395 3.93725 11.9097 2.63402 12.8077 1.64624C13.7057 0.658453 14.9584 0.0665437 16.2917 0C17.625 0.0665437 18.8776 0.658453 19.7756 1.64624C20.6736 2.63402 21.1438 3.93725 21.0833 5.27083C21.0229 3.93725 21.4931 2.63402 22.3911 1.64624C23.2891 0.658453 24.5417 0.0665437 25.875 0C27.2083 0.0665437 28.4609 0.658453 29.3589 1.64624C30.2569 2.63402 30.7271 3.93725 30.6667 5.27083C30.6667 10.7908 21.0833 17.5701 21.0833 17.5701ZM44.367 16.6386C43.3923 15.7492 42.1052 15.2816 40.7869 15.338C39.4686 15.3944 38.2261 15.9701 37.3309 16.9395L30.5421 24.1021C30.6156 24.5058 30.6573 24.9147 30.6667 25.3249C30.6585 27.2664 29.9545 29.1406 28.6826 30.6074C27.4106 32.0743 25.6549 33.0364 23.7341 33.3193L15.6055 34.4808L15.0612 30.6858L23.1917 29.5167C24.244 29.3543 25.1968 28.8022 25.8608 27.9698C26.5248 27.1374 26.8515 26.0858 26.7759 25.0237C26.7004 23.9616 26.2281 22.9668 25.453 22.2368C24.6778 21.5068 23.6565 21.0951 22.5917 21.0833H5.75C4.22501 21.0833 2.76247 21.6891 1.68414 22.7675C0.605802 23.8458 0 25.3083 0 26.8333L0 40.25C0 41.775 0.605802 43.2375 1.68414 44.3159C2.76247 45.3942 4.22501 46 5.75 46H24.2727L44.7312 23.6613C45.6038 22.6769 46.0547 21.3891 45.9866 20.0754C45.9185 18.7617 45.3368 17.5274 44.367 16.6386V16.6386Z" fill="#381177"/>
</g>
<defs>
<clipPath id="clip0_240_15">
<rect width="47" height="47" fill="white"/>
</clipPath>
</defs>
</svg>
