<svg width="47" height="47" viewBox="0 0 47 47" fill="none" xmlns="http://www.w3.org/2000/svg">
<g clip-path="url(#clip0_240_17)">
<path d="M17.625 23.5C24.1143 23.5 29.375 18.2393 29.375 11.75C29.375 5.26065 24.1143 0 17.625 0C11.1357 0 5.875 5.26065 5.875 11.75C5.875 18.2393 11.1357 23.5 17.625 23.5Z" fill="#381177"/>
<path d="M25.5425 27.4167H9.70746C7.13383 27.4199 4.66651 28.4436 2.84668 30.2634C1.02686 32.0833 0.0031095 34.5506 0 37.1242L0 47.0001H35.25V37.1242C35.2469 34.5506 34.2231 32.0833 32.4033 30.2634C30.5835 28.4436 28.1162 27.4199 25.5425 27.4167V27.4167Z" fill="#381177"/>
<path d="M43.0824 15.4219C41.9925 15.4762 40.9686 15.96 40.2345 16.7674C39.5005 17.5748 39.1162 18.6401 39.1657 19.7302C39.2152 18.6401 38.8309 17.5748 38.0969 16.7674C37.3629 15.96 36.3389 15.4762 35.249 15.4219C34.1592 15.4762 33.1352 15.96 32.4012 16.7674C31.6672 17.5748 31.2829 18.6401 31.3324 19.7302C31.3324 24.2344 39.1657 29.7823 39.1657 29.7823C39.1657 29.7823 46.999 24.2422 46.999 19.7302C47.0486 18.6401 46.6643 17.5748 45.9302 16.7674C45.1962 15.96 44.1722 15.4762 43.0824 15.4219V15.4219Z" fill="#381177"/>
</g>
<defs>
<clipPath id="clip0_240_17">
<rect width="47" height="47" fill="white"/>
</clipPath>
</defs>
</svg>
